<svg xmlns="http://www.w3.org/2000/svg" xmlns:xlink="http://www.w3.org/1999/xlink" width="500" zoomAndPan="magnify" viewBox="0 0 375 374.999991" height="500" preserveAspectRatio="xMidYMid meet" version="1.0"><defs><clipPath id="b1729aeffc"><path d="M 37.714844 75.214844 L 337.714844 75.214844 L 337.714844 375 L 37.714844 375 Z M 37.714844 75.214844 " clip-rule="nonzero"/></clipPath></defs><rect x="-37.5" width="450" fill="#ffffff" y="-37.499999" height="449.999989" fill-opacity="1"/><rect x="-37.5" width="450" fill="#ffffff" y="-37.499999" height="449.999989" fill-opacity="1"/><rect x="-37.5" width="450" fill="#7b7b7b" y="-37.499999" height="449.999989" fill-opacity="1"/><g clip-path="url(#b1729aeffc)"><path fill="#ffffff" d="M 332.855469 375.195312 L 42.601562 375.195312 C 39.972656 375.195312 37.84375 373.0625 37.84375 370.4375 L 37.84375 343.320312 C 37.84375 298.210938 74.542969 261.507812 119.65625 261.507812 L 255.800781 261.507812 C 300.910156 261.507812 337.613281 298.210938 337.613281 343.320312 L 337.613281 370.4375 C 337.613281 373.0625 335.484375 375.195312 332.855469 375.195312 Z M 187.726562 248.71875 C 139.894531 248.71875 100.976562 209.800781 100.976562 161.964844 C 100.976562 114.132812 139.894531 75.214844 187.726562 75.214844 C 235.5625 75.214844 274.476562 114.132812 274.476562 161.964844 C 274.476562 209.800781 235.5625 248.71875 187.726562 248.71875 Z M 187.726562 248.71875 " fill-opacity="1" fill-rule="nonzero"/></g></svg>